<svg version="1" xmlns="http://www.w3.org/2000/svg" width="933.333" height="933.333" viewBox="0 0 700.000000 700.000000"><path d="M146.5 141.5c-5.9 4.1-12.8 9.1-15.4 11.1-2.5 1.9-14.8 11.1-27.3 20.5-12.5 9.3-23.8 18.3-25.2 20-2.9 3.5-3.2 5.8-1.2 9.7 3.2 6.1 3.6 6.2 25.2 6.7 23.2.5 27 .9 30.3 3.3 3.1 2.3 3.4 3.4 7.6 27.7.3 1.6 1 5.2 1.5 8 .6 2.7 1.2 6.3 1.4 8 .4 2.9 6.1 37.2 10.6 63.5.5 3 1.2 6.8 1.4 8.5.7 4.1 3.6 21.4 4.2 24.5.2 1.4 1.3 7.9 2.4 14.5 2.2 13.8 2.7 16.9 4 24.5.5 3 1.2 7.1 1.5 9 .3 1.9 1 5.7 1.5 8.5.5 2.7 1.2 6.6 1.5 8.5.9 5.5 1.5 9.2 2.1 12.5.3 1.6.7 3.9.9 5 .1 1.1.8 4.9 1.4 8.5 1.9 10.8 1.9 11.4.5 14.2-.8 1.5-3.4 5.5-5.8 9-7.3 10.6-8.1 16.9-2.7 20.7 1.4 1 6.7 4 11.6 6.6 14.2 7.6 22.2 11.7 62 32.5 6.1 3.2 20 10.4 31 16 11 5.7 26.5 13.7 34.5 17.8C358.4 588 417.6 617 420.4 617c7.1 0 11-4.7 12-14.2.3-3.2 1.1-6.7 1.8-7.8 2.2-3.5 7.5-6.3 123.3-66 9.9-5.1 21.1-11 24.8-13.2 3.8-2.1 7.1-3.8 7.3-3.8 1.2 0 9-6.4 9.6-7.8 1.4-3.6.8-7.2-1.9-10.1-2.4-2.5-4.7-3.4-14.8-5.7-6.6-1.5-12.4-2.9-13-3-.5-.2-1.9-.5-3-.7-1.1-.3-13.9-3.3-28.5-6.7-24.2-5.7-41.1-9.6-45-10.5-10.1-2.2-41.7-9.9-45.6-11-5.5-1.6-8.2-3.9-9-7.6-.5-2.7-.5-31.3.1-45.9.2-5.2.6-17.4.9-27 1.3-38.4 2.1-46.8 4.7-49.6 3.1-3.3 36.5-27.1 104.4-74.4 19.3-13.4 42.1-29.3 50.7-35.4 15.3-10.8 19-14.6 18.3-18.5-.2-.9-.4-2.1-.4-2.6-.1-.6-1.5-2.5-3.2-4.3l-3.2-3.4-105.1.4c-91.5.3-105.5.5-107.4 1.8-1.2.8-11 12.3-21.8 25.5-21.6 26.4-21.2 25.8-37.9 46.5-6.5 8-12.3 14.9-12.9 15.5-.6.5-2.8 3.1-4.9 5.8-5.3 6.5-10.7 11.5-13.8 12.6-3.3 1.1-9.8-1-12.2-4.1-1-1.3-2.9-3.4-4.1-4.8-6-6.9-78.6-96.1-84.6-104-1.4-1.8-3.2-4.1-4-5-.8-1-7.8-9.7-15.5-19.5-19.4-24.6-19.4-24.5-25.8-24.5-2.7 0-5.9 1.7-14.2 7.5zm15.2 25.5c1.8 1 4.1 3.7 5.2 5.8 1.8 3.5 1.8 4.1.5 6.9-.9 1.7-2.8 4.2-4.3 5.7l-2.8 2.6-18.6-.2-18.7-.3 13.6-9.9c11.3-8.2 18.2-12.3 21.4-12.6.3 0 1.9.9 3.7 2zm33.7 44.6c1.7.8 7.2 6.3 12.3 12.2 5 5.9 10.1 11.8 11.3 13.2 1.2 1.4 3.9 4.5 5.9 7 2 2.5 3.8 4.7 4.1 5 4.2 3.8 48.5 59.5 52.9 66.4 4.7 7.5 4.3 10-3.2 19.3-40.2 50.2-68.6 83.2-71.5 83.4-5.5.4-10.6-2.2-12.1-6-.5-1.4-1.5-5.1-2.1-8.1-.5-3-1.3-6.6-1.5-8-.3-1.4-2.1-11.1-4-21.7-1.9-10.5-3.7-20.2-3.9-21.5-.3-1.3-.8-3.9-1.1-5.8-.2-1.9-.7-4.6-.9-6-.3-1.4-1.4-8.1-2.6-14.9-1.1-6.8-2.2-13.5-2.5-15-1.5-8.9-4.4-26.8-5-30.6-.2-1.1-1.1-6.3-2-11.5-.9-5.2-2.9-17.8-4.6-28-1.6-10.2-3.2-19.3-3.5-20.2-.3-1.1.9-3.2 3.3-5.8 3.1-3.4 4.7-4.2 8.8-4.8 7.4-1.1 18.3-.4 21.9 1.4zm345.3 1.2c3.9 4.8 4.9 8.1 3.2 11.1-2.2 3.9-20.7 17.3-104.4 75.6-69.4 48.3-77.8 54.2-97.8 68.2-11.1 7.8-23 16.1-26.5 18.5-9 6.2-43.4 30.9-47.2 33.8-6.4 5-3.7 15.1 4.7 17.9 5.6 1.9 3.3 3.3 55.8-33.5 47.2-33 68.7-47.3 72.7-48.5 4.1-1.1 9.3 1.3 11.5 5.4 1.3 2.7 1.4 7.1.8 35.6-.4 17.9-.8 35.5-1 39.1-.1 3.6-.5 15.7-.9 27s-.9 25.2-1.1 31c-.3 9.6-.6 17.9-2 59.5-.6 18.7-1.1 21.1-5.2 24.8-2.9 2.6-6.1 2.4-13.3-.8-6.1-2.7-121.4-60.5-138.5-69.5-43.7-22.8-51.8-27.5-53.2-30.8-1-2.5-1.1-3.8-.2-5.5 1-1.9 14.5-20.4 15.9-21.7.3-.3 8.6-10.6 18.5-23 14.2-17.8 56.7-70.1 65.3-80.5 1-1.1 4.6-5.6 8.2-10 3.6-4.4 7.3-8.9 8.2-10 .9-1.1 8.3-10.1 16.4-20 29.6-36.1 72.5-87.3 78.6-93.9 1.5-1.6 3.6-2 14-2.3 6.8-.3 12.6-.5 13-.6.5-.1 23.6-.1 51.5.1l50.8.3 2.2 2.7zm-87.2 267.7c10.4 2.1 55.9 13 65.2 15.6 11.9 3.3 14.8 5.2 15.9 10.6 1.2 6.2-5.4 10.6-52.2 34.4-37 18.8-42.4 20.2-47 12.6-1.7-2.9-1.9-5-1.8-25.2.2-39.2.3-41.1 2.8-43.7 5.4-5.9 7.1-6.3 17.1-4.3z"/></svg>